<?xml version="1.0" standalone="no"?>
<!DOCTYPE svg PUBLIC "-//W3C//DTD SVG 20010904//EN"
 "http://www.w3.org/TR/2001/REC-SVG-20010904/DTD/svg10.dtd">
<svg version="1.0" xmlns="http://www.w3.org/2000/svg"
 width="500.000000pt" height="500.000000pt" viewBox="0 0 500.000000 500.000000"
 preserveAspectRatio="xMidYMid meet">
<metadata>
Created by potrace 1.14, written by Peter Selinger 2001-2017
</metadata>
<g transform="translate(0.000000,500.000000) scale(0.100000,-0.100000)"
fill="#000000" stroke="none">
<path d="M0 2500 l0 -2500 2500 0 2500 0 0 2500 0 2500 -2500 0 -2500 0 0
-2500z m1440 635 c0 -228 3 -415 6 -415 3 0 31 22 61 50 140 128 396 198 621
170 93 -11 236 -51 257 -71 5 -5 15 -9 22 -9 10 0 13 69 13 345 l0 345 65 0
65 0 0 -800 0 -800 -65 0 -64 0 -3 409 c-3 398 -4 410 -24 438 -53 71 -127 97
-274 97 -278 -1 -542 -138 -637 -332 l-38 -76 -3 -268 -4 -268 -64 0 -64 0 0
800 0 800 65 0 65 0 0 -415z m1838 400 c168 -40 294 -164 331 -326 37 -159
-20 -355 -132 -452 -83 -72 -218 -116 -354 -117 -40 0 -73 -4 -73 -9 0 -5 37
-46 83 -92 45 -46 132 -149 192 -229 108 -142 221 -266 300 -328 l40 -32 -91
0 -91 0 -50 40 c-53 42 -152 159 -295 350 -48 63 -112 143 -144 178 -59 66
-143 122 -181 122 -13 0 -23 6 -23 14 0 10 35 14 163 19 169 6 228 17 317 62
134 68 210 219 197 395 -12 180 -101 298 -270 358 -63 22 -93 26 -239 30 -134
4 -168 7 -168 18 0 21 400 20 488 -1z m-2448 -2000 c0 -20 5 -25 25 -25 20 0
25 5 25 25 0 14 5 25 10 25 6 0 10 -25 10 -55 0 -30 -4 -55 -10 -55 -5 0 -10
11 -10 25 0 20 -5 25 -25 25 -20 0 -25 -5 -25 -25 0 -14 -4 -25 -10 -25 -5 0
-10 25 -10 55 0 30 5 55 10 55 6 0 10 -11 10 -25z m268 0 c6 14 17 25 23 25 6
0 1 -15 -10 -34 -12 -18 -21 -43 -21 -55 0 -11 -4 -21 -10 -21 -5 0 -10 12
-10 28 0 15 -7 36 -15 46 -24 32 -16 43 9 13 l22 -28 12 26z m247 -5 c0 -20
-6 -26 -30 -30 -20 -4 -31 -12 -36 -30 -5 -17 -7 -7 -8 33 l-1 58 38 -3 c32
-3 37 -6 37 -28z m198 23 c-25 -3 -33 -9 -33 -24 0 -14 8 -19 33 -21 l32 -1
-32 -4 c-24 -3 -33 -9 -33 -23 0 -14 9 -20 38 -23 l37 -4 -42 -1 -43 -2 0 55
0 55 38 -2 c36 -1 36 -1 5 -5z m261 -9 c4 -9 2 -22 -4 -29 -8 -9 -8 -15 0 -20
12 -8 13 -45 1 -45 -5 0 -11 10 -13 23 -2 14 -11 23 -25 25 -19 3 -23 -1 -23
-22 0 -14 -4 -26 -10 -26 -5 0 -10 25 -10 55 l0 55 39 0 c27 0 41 -5 45 -16z
m236 1 c15 -18 7 -19 -19 -3 -39 24 -73 -14 -52 -58 8 -18 18 -24 33 -22 28 4
36 35 11 41 -12 3 -8 5 10 6 23 1 27 -3 27 -27 0 -25 -4 -28 -36 -30 -20 -2
-42 2 -50 9 -17 14 -18 71 -2 87 17 17 63 15 78 -3z m170 -34 c0 -46 2 -50 28
-54 22 -3 20 -4 -10 -6 l-38 -1 0 55 c0 30 5 55 10 55 6 0 10 -22 10 -49z
m287 23 c15 -24 15 -29 2 -53 -16 -29 -61 -40 -85 -20 -17 14 -19 70 -2 87 22
22 66 14 85 -14z m211 19 c-14 -3 -18 -15 -18 -54 0 -27 -4 -49 -10 -49 -5 0
-10 22 -10 49 0 39 -4 51 -17 54 -10 3 2 5 27 5 25 0 37 -2 28 -5z m399 -36
c0 -20 4 -44 7 -52 3 -8 1 -15 -4 -15 -5 0 -10 10 -12 23 -5 33 -50 31 -59 -3
-5 -17 -7 -7 -8 33 l-1 58 38 -3 c35 -3 37 -5 39 -41z m206 36 c-25 -3 -33 -9
-33 -24 0 -14 8 -19 33 -21 l32 -1 -32 -4 c-24 -3 -33 -9 -33 -23 0 -14 9 -20
33 -23 28 -3 26 -4 -10 -5 l-43 -2 0 55 0 55 43 -2 c36 -1 38 -2 10 -5z m199
-35 c10 -28 18 -38 22 -28 3 8 10 28 16 44 6 16 13 26 16 23 9 -8 -30 -107
-40 -104 -12 4 -48 107 -37 107 4 0 14 -19 23 -42z m218 -13 c0 -30 -4 -55
-10 -55 -5 0 -10 25 -10 55 0 30 5 55 10 55 6 0 10 -25 10 -55z m203 48 c-25
-3 -33 -9 -33 -24 0 -14 8 -19 33 -21 l32 -1 -32 -4 c-24 -3 -33 -9 -33 -23 0
-14 9 -20 33 -23 28 -3 26 -4 -10 -5 l-43 -2 0 55 0 55 43 -2 c36 -1 38 -2 10
-5z m192 -40 l8 -38 11 39 c15 51 32 56 40 11 8 -39 26 -39 26 0 0 13 5 27 10
30 13 8 13 -6 -1 -61 -6 -24 -15 -44 -20 -44 -4 0 -14 19 -20 43 l-12 42 -14
-42 c-8 -24 -18 -43 -22 -43 -7 0 -31 79 -31 101 0 24 18 -4 25 -38z"/>
<path d="M1280 1530 c0 -15 7 -20 25 -20 18 0 25 5 25 20 0 15 -7 20 -25 20
-18 0 -25 -5 -25 -20z"/>
<path d="M1740 1530 c0 -16 5 -21 23 -18 12 2 22 10 22 18 0 8 -10 16 -22 18
-18 3 -23 -2 -23 -18z"/>
<path d="M2419 1529 c-8 -16 -8 -28 0 -45 18 -41 71 -25 71 21 0 44 -50 61
-71 24z"/>
<path d="M3040 1530 c0 -17 5 -21 28 -18 16 2 27 9 27 18 0 9 -11 16 -27 18
-23 3 -28 -1 -28 -18z"/>
</g>
</svg>
